<?xml version="1.0" encoding="UTF-8"?>
<svg id="Capa_2" xmlns="http://www.w3.org/2000/svg" viewBox="0 0 89 89">
  <defs>
    <style>
      .cls-1 {
        fill: #0052b4;
      }
      .cls-2 {
        fill: #d80027;
      }
      .cls-3 {
        fill: #f0f0f0;
      }
    </style>
  </defs>
  <g id="Capa_1-2" data-name="Capa_1">
    <g>
      <circle class="cls-3" cx="44.5" cy="44.5" r="44.5"/>
      <g>
        <path class="cls-1" d="M9.2,17.41c-3.5,4.55-6.13,9.79-7.67,15.48h23.15l-15.48-15.48Z"/>
        <path class="cls-1" d="M87.47,32.89c-1.53-5.69-4.17-10.94-7.67-15.48l-15.48,15.48h23.15Z"/>
        <path class="cls-1" d="M1.53,56.11c1.53,5.69,4.17,10.94,7.67,15.48l15.48-15.48H1.53Z"/>
        <path class="cls-1" d="M71.59,9.2c-4.55-3.5-9.79-6.13-15.48-7.67v23.15l15.48-15.48Z"/>
        <path class="cls-1" d="M17.41,79.8c4.55,3.5,9.79,6.13,15.48,7.67v-23.15l-15.48,15.48Z"/>
        <path class="cls-1" d="M32.89,1.53c-5.69,1.53-10.94,4.17-15.48,7.67l15.48,15.48V1.53Z"/>
        <path class="cls-1" d="M56.11,87.47c5.69-1.53,10.94-4.17,15.48-7.67l-15.48-15.48v23.15Z"/>
        <path class="cls-1" d="M64.32,56.11l15.48,15.48c3.5-4.55,6.13-9.79,7.67-15.48h-23.15Z"/>
      </g>
      <g>
        <path class="cls-2" d="M88.62,38.7h-38.32V.38c-1.9-.25-3.84-.38-5.8-.38s-3.9.13-5.8.38v38.32h0s-38.32,0-38.32,0C.13,40.6,0,42.53,0,44.5s.13,3.9.38,5.8h38.32v38.32c1.9.25,3.84.38,5.8.38s3.9-.13,5.8-.38v-38.32h0s38.32,0,38.32,0c.25-1.9.38-3.84.38-5.8s-.13-3.9-.38-5.8h0Z"/>
        <path class="cls-2" d="M56.11,56.11l19.86,19.86c.91-.91,1.78-1.87,2.62-2.86l-17-17h-5.47Z"/>
        <path class="cls-2" d="M32.89,56.11h0l-19.86,19.86c.91.91,1.87,1.78,2.86,2.62l17-17v-5.47Z"/>
        <path class="cls-2" d="M32.89,32.89h0S13.03,13.03,13.03,13.03c-.91.91-1.78,1.87-2.62,2.86l17,17h5.47Z"/>
        <path class="cls-2" d="M56.11,32.89l19.86-19.86c-.91-.91-1.87-1.78-2.86-2.62l-17,17v5.47Z"/>
      </g>
    </g>
  </g>
</svg>