<?xml version="1.0" encoding="UTF-8"?>
<svg id="Capa_2" data-name="Capa 2" xmlns="http://www.w3.org/2000/svg" viewBox="0 0 105.91 122.52">
  <defs>
    <style>
      .cls-1 {
        fill: #fdfaf3;
      }
    </style>
  </defs>
  <g id="Capa_1-2" data-name="Capa 1">
    <g>
      <path class="cls-1" d="M88.77,11.31V3.28c0-1.81-1.47-3.28-3.28-3.28h-12.12c-1.81,0-3.28,1.47-3.28,3.28v8.03h18.67Z"/>
      <path class="cls-1" d="M52.95,66.31v-7.53c0-1.82-1.48-3.3-3.3-3.3H3.29c-1.82,0-3.29,1.47-3.29,3.29v7.53c0,13.51,11.11,26.59,26.48,26.59,15.47,0,26.48-13.08,26.48-26.59h0Z"/>
      <path class="cls-1" d="M29.76,108.91v-9.61c-2.16.21-4.29.23-6.56,0v9.42l-9.39,8.02c-2.32,1.98-.92,5.78,2.13,5.78h20.32c2.98,0,4.4-3.66,2.2-5.67l-8.7-7.94Z"/>
      <path class="cls-1" d="M88.77,38.09v-20.22h-18.67v20.22c-4.15,1.57-7.75,4.19-10.58,7.5v20.72c0,7.4-2.46,14.23-6.56,19.75v33.18c0,1.81,1.47,3.28,3.28,3.28h46.4c1.81,0,3.28-1.47,3.28-3.28v-56.4c0-11.33-7.13-20.97-17.14-24.75h0Z"/>
    </g>
  </g>
</svg>