<?xml version="1.0" encoding="UTF-8"?>
<svg id="Capa_2" data-name="Capa 2" xmlns="http://www.w3.org/2000/svg" viewBox="0 0 94.34 94.34">
  <defs>
    <style>
      .cls-1 {
        fill: #fdfaf3;
      }
    </style>
  </defs>
  <g id="Capa_1-2" data-name="Capa 1">
    <g>
      <circle class="cls-1" cx="47.17" cy="63.92" r="3.16"/>
      <circle class="cls-1" cx="47.17" cy="30.42" r="3.16"/>
      <path class="cls-1" d="M91.8,2.55c-1.64-1.64-3.82-2.55-6.14-2.55h-33.07c-2.32,0-4.5.9-6.14,2.54L2.54,46.44c-1.64,1.64-2.54,3.82-2.54,6.14s.9,4.5,2.54,6.14l33.07,33.07c1.64,1.64,3.82,2.55,6.14,2.55s4.5-.9,6.14-2.54l43.9-43.9c1.64-1.64,2.54-3.82,2.54-6.14V8.69c0-2.32-.9-4.5-2.54-6.14h0ZM47.17,21.74c4.79,0,8.69,3.9,8.69,8.69s-3.9,8.69-8.69,8.69-8.69-3.9-8.69-8.69,3.9-8.69,8.69-8.69ZM47.17,72.61c-4.79,0-8.69-3.9-8.69-8.69s3.9-8.69,8.69-8.69,8.69,3.9,8.69,8.69-3.9,8.69-8.69,8.69ZM64.94,49.94H29.41c-1.53,0-2.76-1.24-2.76-2.76s1.24-2.76,2.76-2.76h35.53c1.53,0,2.76,1.24,2.76,2.76s-1.24,2.76-2.76,2.76ZM76.78,20.33c-1.53,0-2.76-1.24-2.76-2.76s1.24-2.76,2.76-2.76,2.76,1.24,2.76,2.76-1.24,2.76-2.76,2.76Z"/>
    </g>
  </g>
</svg>