<?xml version="1.0" encoding="UTF-8"?>
<svg id="Capa_2" data-name="Capa 2" xmlns="http://www.w3.org/2000/svg" viewBox="0 0 148.39 85.03">
  <defs>
    <style>
      .cls-1, .cls-2 {
        fill: #fdfaf3;
      }

      .cls-2 {
        fill-rule: evenodd;
      }
    </style>
  </defs>
  <g id="Capa_1-2" data-name="Capa 1">
    <g>
      <path class="cls-2" d="M132.02,72.15h9.37c2.93,0,5.56-1.85,6.57-4.59h-5.88c-2.02,0-3.68-1.66-3.68-3.68v-4.57c0-3.01,2.45-5.46,5.46-5.46h4.53v-2.09c0-2.11-.9-4.03-2.1-5.72-1.29-1.81-4-3.4-7.15-5.24-3.6-2.1-7.74-4.52-11.43-8.2h-33.12c-3.01,0-5.46-2.45-5.46-5.46v-9.64c0-4.97,4.05-9.02,9.02-9.02h14.57c-3.48-4.97-8.02-8.48-15.98-8.48H5.22C2.35,0,0,2.35,0,5.22v48.23h9.82c1.05,0,1.9.85,1.9,1.9v16.8h6.38c.95-7.35,7.23-12.88,14.66-12.88s13.71,5.52,14.66,12.88h55.29c.95-7.35,7.23-12.88,14.66-12.88s13.71,5.52,14.66,12.88h0ZM51.66,57.25c-2.5,0-2.5-3.81,0-3.81h46.78c2.5,0,2.5,3.81,0,3.81h-46.78ZM91.02,43.01c-2.5,0-2.5-3.81,0-3.81h7.43c2.5,0,2.5,3.81,0,3.81h-7.43ZM77.14,32.61h-25.65c-1.05,0-1.9-.85-1.9-1.9V10.39c0-1.05.85-1.9,1.9-1.9h25.65c1.05,0,1.9.85,1.9,1.9v20.32c0,1.05-.85,1.9-1.9,1.9h0ZM37.62,32.61H11.97c-1.05,0-1.9-.85-1.9-1.9V10.39c0-1.05.85-1.9,1.9-1.9h25.65c1.05,0,1.9.85,1.9,1.9v20.32c0,1.05-.85,1.9-1.9,1.9h0Z"/>
      <path class="cls-2" d="M115.07,12.29h-16.93c-2.87,0-5.22,2.35-5.22,5.22v9.64c0,.91.75,1.66,1.66,1.66h29.85c-2.75-3.72-4.79-7.73-6.76-11.58-.86-1.69-1.71-3.35-2.6-4.93h0Z"/>
      <path class="cls-1" d="M53.4,12.29h21.84v16.52h-21.84V12.29Z"/>
      <path class="cls-1" d="M13.87,12.29h21.84v16.52H13.87V12.29Z"/>
      <g>
        <path class="cls-2" d="M148.39,57.65h-4.53c-.91,0-1.66.75-1.66,1.66v4.45h6.19v-6.11Z"/>
        <path class="cls-2" d="M7.91,72.15v-14.9H0v9.68C0,69.8,2.35,72.15,5.22,72.15h2.7Z"/>
        <path class="cls-2" d="M32.75,63.08c-6.06,0-10.97,4.91-10.97,10.97s4.91,10.97,10.97,10.97,10.97-4.91,10.97-10.97-4.91-10.97-10.97-10.97ZM32.75,67.91c3.39,0,6.14,2.75,6.14,6.14s-2.75,6.14-6.14,6.14-6.14-2.75-6.14-6.14,2.75-6.14,6.14-6.14Z"/>
        <path class="cls-2" d="M117.36,63.08c-6.06,0-10.97,4.91-10.97,10.97s4.91,10.97,10.97,10.97,10.97-4.91,10.97-10.97-4.91-10.97-10.97-10.97ZM117.36,67.91c3.39,0,6.14,2.75,6.14,6.14s-2.75,6.14-6.14,6.14-6.14-2.75-6.14-6.14,2.75-6.14,6.14-6.14Z"/>
        <path class="cls-2" d="M32.75,71.72c-1.29,0-2.34,1.05-2.34,2.34s1.05,2.34,2.34,2.34,2.34-1.05,2.34-2.34-1.05-2.34-2.34-2.34Z"/>
      </g>
      <circle class="cls-1" cx="117.41" cy="74.07" r="2.34"/>
    </g>
  </g>
</svg>