<?xml version="1.0" encoding="UTF-8"?>
<svg id="Capa_2" data-name="Capa 2" xmlns="http://www.w3.org/2000/svg" viewBox="0 0 104.91 112.15">
  <defs>
    <style>
      .cls-1 {
        fill: #fdfaf3;
      }
    </style>
  </defs>
  <g id="Capa_1-2" data-name="Capa 1">
    <g>
      <path class="cls-1" d="M63.19,87.48h-5.16v-2.22c0-2.5-1.89-4.42-4.39-4.42h-7.33c-2.49,0-4.65,1.92-4.65,4.42v2.22h-4.9c-2.6,0-4.84,2-4.84,4.6v15.2c0,2.6,2.24,4.87,4.84,4.87h26.44c2.6,0,4.58-2.27,4.58-4.87v-15.2c0-2.61-1.98-4.6-4.58-4.6ZM54.91,87.48h-10.16v-2.22c0-.78.77-1.3,1.55-1.3h7.33c.77,0,1.28.53,1.28,1.3v2.22Z"/>
      <path class="cls-1" d="M71.1,70.63c-.05.52.12.99.46,1.38.35.39.84.56,1.37.56h.64v34.14c0,2.92,2.37,5.28,5.29,5.28s5.28-2.37,5.28-5.28v-34.14h2.49v34.14c0,2.92,2.37,5.29,5.29,5.29s5.28-2.37,5.28-5.29v-34.14h.59c.53,0,1.03-.18,1.38-.57.36-.39.53-.89.47-1.42l-.69-10.96c3.84-.73,6.44-4.36,5.88-8.24l-2.88-19.95c-.64-4.44-4.44-7.77-8.93-7.77h-15.54c-4.53,0-8.35,3.38-8.94,7.87l-3,22.83H5.27c-2.91.01-5.27,2.37-5.27,5.28s2.36,5.27,5.27,5.27h66.43s-.6,5.73-.6,5.73Z"/>
      <circle class="cls-1" cx="85.38" cy="9.69" r="9.69"/>
      <path class="cls-1" d="M21.17,30.28c-4.55,0-8.4,3.39-8.95,7.91l-1.59,12.82h37.13l-1.67-12.87c-.58-4.5-4.41-7.86-8.95-7.86h-15.97Z"/>
      <circle class="cls-1" cx="29.18" cy="17.15" r="9.69"/>
    </g>
  </g>
</svg>