<?xml version="1.0" encoding="UTF-8"?>
<svg id="Capa_2" data-name="Capa 2" xmlns="http://www.w3.org/2000/svg" viewBox="0 0 101.02 101.02">
  <defs>
    <style>
      .cls-1 {
        fill: #fdfaf3;
      }
    </style>
  </defs>
  <g id="Capa_1-2" data-name="Capa 1">
    <g>
      <path class="cls-1" d="M47.13,72.49h6.76v6.76h-6.76v-6.76Z"/>
      <path class="cls-1" d="M20.18,47.13h6.76v6.76h-6.76v-6.76Z"/>
      <path class="cls-1" d="M74.08,72.49h6.76v6.76h-6.76v-6.76Z"/>
      <path class="cls-1" d="M20.18,72.49h6.76v6.76h-6.76v-6.76Z"/>
      <path class="cls-1" d="M90.14,6.34h-2.22v9.3c0,1.63-1.33,2.96-2.96,2.96s-2.96-1.33-2.96-2.96V2.96c0-1.63-1.33-2.96-2.96-2.96s-2.96,1.33-2.96,2.96v3.38h-7.18v9.3c0,1.63-1.33,2.96-2.96,2.96s-2.96-1.33-2.96-2.96V2.96c0-1.63-1.33-2.96-2.96-2.96s-2.96,1.33-2.96,2.96v3.38h-7.18v9.3c0,1.63-1.33,2.96-2.96,2.96s-2.96-1.33-2.96-2.96V2.96c0-1.63-1.33-2.96-2.96-2.96s-2.96,1.33-2.96,2.96v3.38h-7.18v9.3c0,1.63-1.33,2.96-2.96,2.96s-2.96-1.33-2.96-2.96V2.96c0-1.63-1.33-2.96-2.96-2.96s-2.96,1.33-2.96,2.96v3.38h-8.14C4.88,6.34,0,11.22,0,17.22v8.14h101.02v-8.14c0-6-4.88-10.88-10.89-10.88Z"/>
      <path class="cls-1" d="M0,90.14C0,96.14,4.88,101.02,10.88,101.02h79.25c6,0,10.89-4.88,10.89-10.88V31.28H0v58.86ZM68.16,44.17c0-1.63,1.33-2.96,2.96-2.96h12.68c1.63,0,2.96,1.33,2.96,2.96v12.68c0,1.63-1.33,2.96-2.96,2.96h-12.68c-1.63,0-2.96-1.33-2.96-2.96v-12.68ZM68.16,69.53c0-1.63,1.33-2.96,2.96-2.96h12.68c1.63,0,2.96,1.33,2.96,2.96v12.68c0,1.63-1.33,2.96-2.96,2.96h-12.68c-1.63,0-2.96-1.33-2.96-2.96v-12.68ZM42.08,46.26c-1.16-1.16-1.16-3.03,0-4.19,1.16-1.16,3.03-1.16,4.19,0l4.25,4.25,4.25-4.25c1.16-1.16,3.03-1.16,4.19,0,1.16,1.16,1.16,3.03,0,4.19l-4.25,4.25,4.25,4.25c1.16,1.16,1.16,3.03,0,4.19-.58.58-1.34.87-2.09.87s-1.51-.29-2.09-.87l-4.25-4.25-4.25,4.25c-.58.58-1.34.87-2.09.87s-1.51-.29-2.09-.87c-1.16-1.16-1.16-3.03,0-4.19l4.25-4.25-4.25-4.25ZM41.21,69.53c0-1.63,1.33-2.96,2.96-2.96h12.68c1.63,0,2.96,1.33,2.96,2.96v12.68c0,1.63-1.33,2.96-2.96,2.96h-12.68c-1.63,0-2.96-1.33-2.96-2.96v-12.68ZM14.27,44.17c0-1.63,1.33-2.96,2.96-2.96h12.68c1.63,0,2.96,1.33,2.96,2.96v12.68c0,1.63-1.33,2.96-2.96,2.96h-12.68c-1.63,0-2.96-1.33-2.96-2.96v-12.68ZM14.27,69.53c0-1.63,1.33-2.96,2.96-2.96h12.68c1.63,0,2.96,1.33,2.96,2.96v12.68c0,1.63-1.33,2.96-2.96,2.96h-12.68c-1.63,0-2.96-1.33-2.96-2.96v-12.68Z"/>
      <path class="cls-1" d="M74.08,47.13h6.76v6.76h-6.76v-6.76Z"/>
    </g>
  </g>
</svg>