<?xml version="1.0" encoding="UTF-8"?>
<svg id="Capa_2" data-name="Capa 2" xmlns="http://www.w3.org/2000/svg" viewBox="0 0 103.34 103.34">
  <defs>
    <style>
      .cls-1 {
        fill: #fdfaf3;
        fill-rule: evenodd;
      }
    </style>
  </defs>
  <g id="Capa_1-2" data-name="Capa 1">
    <path class="cls-1" d="M100.93,45.57l-4.53-4.53c-.87-.83-1.2-2.08-.87-3.23l1.59-5.92c1.18-4.41-1.44-8.94-5.85-10.13l-6.18-1.66c-1.17-.29-2.08-1.2-2.37-2.36l-1.59-5.93c-1.19-4.41-5.72-7.02-10.13-5.85l-6.18,1.66c-1.16.33-2.4,0-3.23-.87l-4.34-4.33c-3.23-3.22-8.46-3.22-11.69,0l-4.52,4.52c-.83.87-2.08,1.2-3.23.87l-5.93-1.59c-4.41-1.18-8.94,1.44-10.13,5.85l-1.66,6.18c-.29,1.17-1.2,2.08-2.37,2.37l-5.93,1.59c-4.41,1.19-7.02,5.72-5.85,10.13l1.66,6.18c.33,1.16,0,2.4-.87,3.23l-4.34,4.34c-3.22,3.23-3.22,8.46,0,11.69l4.53,4.53c.87.83,1.2,2.08.87,3.23l-1.59,5.92c-1.18,4.41,1.44,8.94,5.85,10.13l6.18,1.66c1.17.29,2.08,1.2,2.37,2.37l1.59,5.93c1.19,4.41,5.72,7.02,10.13,5.85l6.18-1.66c1.15-.33,2.4,0,3.23.87l4.34,4.34c3.23,3.22,8.46,3.22,11.69,0l4.52-4.53c.83-.87,2.08-1.2,3.23-.87l5.93,1.59c4.41,1.18,8.94-1.44,10.13-5.85l1.66-6.18c.29-1.17,1.2-2.08,2.37-2.37l5.93-1.59c4.41-1.19,7.02-5.72,5.85-10.13l-1.66-6.18c-.33-1.16,0-2.4.87-3.23l4.33-4.34c3.22-3.23,3.22-8.46,0-11.69h0ZM51.67,54.13c-4.83,0-8.74-3.91-8.74-8.74,0-3.67,2.29-6.95,5.74-8.21l.54-.2v-2.54c.01-1.36,1.12-2.45,2.48-2.44,1.34.01,2.43,1.1,2.44,2.44v2.54l.54.2c3.45,1.26,5.74,4.54,5.74,8.21.01,1.36-1.08,2.47-2.44,2.48-1.36.01-2.47-1.08-2.48-2.44,0-.01,0-.03,0-.04,0-2.11-1.71-3.82-3.82-3.82-2.11,0-3.82,1.71-3.82,3.82,0,2.11,1.71,3.82,3.82,3.82,4.83,0,8.74,3.91,8.74,8.74,0,3.67-2.29,6.95-5.74,8.21l-.54.2v2.54c.01,1.36-1.08,2.47-2.44,2.48-1.36.01-2.47-1.08-2.48-2.44,0-.01,0-.03,0-.04v-2.54l-.54-.2c-3.44-1.26-5.74-4.54-5.74-8.21-.01-1.36,1.08-2.47,2.44-2.48,1.36-.01,2.47,1.08,2.48,2.44,0,.01,0,.03,0,.04,0,2.11,1.71,3.82,3.82,3.82,2.11,0,3.82-1.71,3.82-3.82,0-2.11-1.71-3.82-3.82-3.82h0ZM51.67,75.51c-13.16,0-23.84-10.67-23.84-23.84,0-13.16,10.67-23.84,23.84-23.84,13.16,0,23.84,10.67,23.84,23.84-.01,13.16-10.68,23.82-23.84,23.84h0ZM51.67,22.91c15.86,0,28.76,12.9,28.76,28.76s-12.9,28.76-28.76,28.76-28.75-12.9-28.75-28.76,12.9-28.76,28.75-28.76Z"/>
  </g>
</svg>